<svg width="47" height="47" viewBox="0 0 47 47" fill="none" xmlns="http://www.w3.org/2000/svg">
<path d="M46.9854 20.8638V20.8634C46.9087 20.1312 46.5293 19.4564 45.9448 19.0092L43.2698 16.9266L44.2752 13.6089C44.4897 12.9011 44.4007 12.1276 44.0311 11.4865C43.661 10.8457 43.0356 10.3821 42.3152 10.2135L38.9499 9.42787L38.5204 5.9991C38.4282 5.26472 38.0323 4.59417 37.4342 4.16029C36.8354 3.72461 36.0748 3.555 35.3487 3.69485L31.9547 4.34568L30.1672 1.38773C29.4557 0.210501 27.9619 -0.234142 26.6932 0.352499C26.6039 0.393736 26.5179 0.443221 26.4429 0.496291L23.4972 2.5481L20.6611 0.572669C20.0541 0.150259 19.2914 -0.00357343 18.5677 0.1499C17.8441 0.303373 17.2094 0.755188 16.8268 1.38844L15.04 4.34604L11.6457 3.69485C10.9188 3.55572 10.159 3.72533 9.56121 4.15993C8.96238 4.59489 8.56651 5.26544 8.47471 5.9991L8.04513 9.42823L4.48583 10.2591L4.31873 10.3136L4.25706 10.3405C2.96401 10.9059 2.31713 12.2808 2.71946 13.6089L3.72456 16.9266L0.934789 19.0967L0.773069 19.2373L0.727529 19.2871C-0.208731 20.3098 -0.245306 21.8567 0.640393 22.8909L2.82452 25.5028L1.0542 28.7153L0.983557 28.876L0.963118 28.9359C0.521702 30.2551 1.12305 31.6887 2.36159 32.27L5.48987 33.738L5.1969 37.1811C5.13415 37.9187 5.38229 38.657 5.87713 39.2064C6.37198 39.7561 7.08018 40.0799 7.82029 40.0949L11.2752 40.1638L12.4084 43.428C12.6508 44.1272 13.1775 44.7009 13.8531 45.0014C14.5287 45.3023 15.3071 45.3102 15.9899 45.0229L19.1745 43.6808L21.6741 46.3483L21.805 46.4648L21.8556 46.5025C22.3493 46.8671 22.9263 47.0457 23.4979 47.0457C24.2211 47.0457 24.9354 46.7596 25.4579 46.202L27.821 43.6808L31.0059 45.0233C31.6872 45.3102 32.4653 45.3023 33.1409 45.0018C33.8172 44.7009 34.3439 44.1272 34.5863 43.4283L35.7198 40.1638L39.3745 40.091L39.548 40.072L39.6104 40.0594C40.9731 39.7815 41.9136 38.5441 41.7978 37.1815L41.5052 33.738L44.6338 32.27C45.3033 31.9558 45.8186 31.3721 46.0474 30.6682C46.2758 29.9646 46.2023 29.1894 45.8451 28.5414L44.1705 25.5028L46.355 22.8909C46.8323 22.3333 47.0622 21.5953 46.9854 20.8638ZM41.5654 24.3216C41.1326 24.8326 41.0588 25.5673 41.3826 26.1543L43.3953 29.8068L39.6198 31.5786C39.0077 31.8662 38.6351 32.512 38.6921 33.1858L39.0453 37.341L34.8757 37.4242C34.1998 37.4378 33.5963 37.876 33.3747 38.515L32.0071 42.4548L28.1645 40.8351C27.5413 40.5726 26.8119 40.7271 26.349 41.2209L23.4972 44.2638L20.6454 41.2205C20.333 40.8871 19.8988 40.7085 19.4577 40.7085C19.2458 40.7085 19.0325 40.7497 18.8306 40.8351L14.9873 42.4548L13.62 38.5161C13.3988 37.8768 12.7953 37.4378 12.1186 37.4242L7.94867 37.341L8.30187 33.1858C8.35924 32.512 7.98632 31.8662 7.37422 31.5786L3.59906 29.8068L5.61178 26.1547C5.93594 25.567 5.86172 24.8326 5.42855 24.3212L2.77934 21.1532L6.02523 18.628C6.55665 18.2182 6.78256 17.5139 6.58749 16.872L5.37835 12.881L9.44001 11.9322C10.098 11.7784 10.5968 11.2247 10.6814 10.5535L11.1999 6.41542L15.2964 7.20107C15.9605 7.32801 16.6411 7.02465 16.991 6.44625L19.1476 2.87692L22.5695 5.26006C23.1246 5.64662 23.8705 5.64697 24.4252 5.26006L27.8471 2.87656L30.004 6.44518C30.3533 7.02429 31.0353 7.32801 31.6994 7.20071L35.7951 6.41506L36.3136 10.5527C36.3975 11.2237 36.8963 11.778 37.5554 11.9322L41.6167 12.8807L40.4072 16.8717C40.2125 17.515 40.4388 18.2189 40.9702 18.6284L44.2146 21.1546L41.5654 24.3216Z" fill="#FD6A00"/>
<path d="M23.6435 11.8676C17.1901 11.8676 11.9397 17.1176 11.9397 23.5714C11.9397 30.0248 17.1901 35.2752 23.6435 35.2752C30.0973 35.2752 35.3476 30.0248 35.3476 23.5714C35.3476 17.1176 30.0969 11.8676 23.6435 11.8676ZM23.6435 32.5191C18.7097 32.5191 14.6954 28.5051 14.6954 23.5714C14.6954 18.6373 18.7097 14.6233 23.6435 14.6233C28.5776 14.6233 32.5916 18.6373 32.5916 23.5714C32.5916 28.5051 28.5776 32.5191 23.6435 32.5191Z" fill="#FD6A00"/>
<path d="M27.0077 19.9375L21.5712 25.3736L20.096 23.898C19.5578 23.3602 18.6853 23.3602 18.1474 23.898C17.6092 24.4363 17.6092 25.3087 18.1474 25.8469L20.5969 28.2964C20.8659 28.5657 21.2187 28.7002 21.5712 28.7002C21.9237 28.7002 22.2765 28.5657 22.5455 28.2964L28.9562 21.886C29.4941 21.3478 29.4941 20.4754 28.9562 19.9375C28.418 19.3993 27.5455 19.3993 27.0077 19.9375Z" fill="#FD6A00"/>
</svg>
